<svg width="28" height="30" xmlns="http://www.w3.org/2000/svg"><g fill="none" fill-rule="evenodd"><path d="M18.373 14.924c-.094.256-.219.563-.374.922-.383.891-.602 1.405-.656 1.54a3.03 3.03 0 0 1-.171.365 1.573 1.573 0 0 0-.122.278c-.517 1.371-1.244 2.939-2.18 4.702l-1.195-2.526-2.868-6.02-.41-.874h8.59c-.104.26-.308.793-.614 1.613zm-9.361-2.207a6.398 6.398 0 0 1-.034-.537L8.93 9.982c-.044-1.518-.066-2.709-.066-3.572l.02-.226c.116.084.208.16.276.226.066.067.227.249.482.545.408.468.717.813.926 1.035a91.45 91.45 0 0 1 1.9 2.06l.147.144c.067.067.212.222.437.466l.576.657c.076.088.222.24.436.458.237.24.446.442.63.611a4.83 4.83 0 0 0-.007.22v.074c-.044.103-.093.162-.144.19h-4.54a6.492 6.492 0 0 0-.756-.099l-.235-.054zm6.855-7.483a.703.703 0 0 1 .114-.166c.03-.034.127-.077.289-.125.068-.02.146-.026.223-.036.433.015.811.098 1.128.259.352.175.6.395.748.657.193.343.29.67.29.977 0 .28-.063.552-.186.813-.123.262-.276.46-.459.594a1.824 1.824 0 0 1-.718.288 6.27 6.27 0 0 1-1.113.115c-.053 0-.135-.001-.239-.005l.003-.123-.053-.962-.005-.174c-.002-.03-.002-.064-.002-.092l.007-.522-.034-1.269c0-.063.003-.14.007-.23zm2.387 5.988c.33.665.51 1.15.744 1.648h-2.574a1.623 1.623 0 0 1-.306-.112c-.087-.052-.058-.142-.095-.228v-.009-.049c0-.673-.015-1.465-.042-2.377l-.034-1.116.141.006.57-.007c.144 0 .258.023.345.07.088.05.199.167.333.359l.918 1.815zm4.176 13.952c-.824-.122-1.42-.241-1.783-.356-.223-.077-.358-.16-.406-.245-.047-.086-.071-.367-.071-.842l-.01-1.212.01-1.883a229.37 229.37 0 0 1-.08-4.848l.01-.462-.01-.44c.033-.501.072-.796.116-.886.043-.09.146-.163.31-.22.16-.058.543-.103 1.143-.135a1.89 1.89 0 0 0 .78-.184.744.744 0 0 0 .031-.182.863.863 0 0 0-.02-.154c-.015.002-.032.002-.047.002a1.497 1.497 0 0 1-.01-.07c-.439-.082-1.8-.158-1.985-.247a1.601 1.601 0 0 1-.473-.345c-.13-.138-.364-.48-.705-1.024l-.85-1.48a13.51 13.51 0 0 1-.636-1.174c.085-.059.2-.127.348-.204.862-.439 1.294-1.076 1.294-1.909 0-.44-.12-.837-.355-1.193a1.948 1.948 0 0 0-.957-.758c-.4-.149-1.099-.223-2.096-.223l-1.765.02h-.55c-.089 0-.185.006-.284.017a2.336 2.336 0 0 1-.184.017c-.162.004-.265.027-.31.068a.513.513 0 0 0-.02.122c0 .05.017.086.053.109.037.023.227.057.57.105.345.047.56.128.641.241.083.113.123.427.118.944l-.007 1.221.007 1.705-.013.916.02.808-.002.068-1.334-1.463a57.245 57.245 0 0 0-1.37-1.468 14.884 14.884 0 0 1-.782-.85l-.202-.238L9.15 5.295c-.046-.048-.086-.093-.122-.133a3.65 3.65 0 0 0-.524-.531 4.357 4.357 0 0 0-.18-.007c-.05 0-.137.007-.262.02-.321.036-.83.054-1.523.054l.007.318c.08.021.258.048.533.08.276.03.499.106.668.225.085.063.14.133.168.213.049.15.077.646.086 1.487l.015 1.887v.901c.013.731.019 1.233.019 1.508 0 .588-.025 1.036-.074 1.341a.491.491 0 0 1-.207.139c-.13.049-.336.094-.617.133l-.316.046-.54.048a1.618 1.618 0 0 0-.163-.014c-.06 0-.149.019-.263.058a.444.444 0 0 0-.071.173c0 .051.034.125.1.22 1.058.11 1.832.212 2.32.31v.248c0 .43-.055 1.51-.165 3.24-.137 2.27-.237 4.087-.3 5.452-.047 1.048-.121 1.69-.222 1.926a.362.362 0 0 1-.122.143c-.08.052-.335.086-.76.106-.547.057-.925.153-1.135.288l.01.26c.506-.007.893-.017 1.163-.035.486-.029.844-.043 1.073-.043l3.145.106a.508.508 0 0 0 .051-.169.603.603 0 0 0-.071-.215 4.921 4.921 0 0 0-.77-.058c-.703-.013-1.138-.072-1.306-.178a.625.625 0 0 1-.295-.484 16.756 16.756 0 0 1-.142-2.05c0-1.942.045-3.72.136-5.336.069-1.327.132-2.128.188-2.404.425.711 1.167 2.178 2.225 4.404a72.18 72.18 0 0 1 2.735 6.509l.236.01c.06-.147.137-.35.232-.605.215-.558.474-1.2.776-1.923l.697-1.578.535-1.298 1.492-3.366.02-.058.152-.364c.336-.75.562-1.238.676-1.463.054.534.081 1.317.081 2.35 0 1.302-.011 2.241-.036 2.819-.023.578-.035.972-.035 1.184l.03 1.944c0 .75-.03 1.248-.09 1.492-.197.122-.508.237-.933.347-.385.032-.688.093-.91.183a.584.584 0 0 0-.032.182v.125a.358.358 0 0 0 .152.038c.075 0 .251-.01.529-.032.453-.03 1.372-.044 2.76-.044.034 0 .284.01.75.032.468.023.901.035 1.3.035h.467c.006-.07.009-.135.009-.192a.145.145 0 0 0-.07-.125z" fill="#AB7C8C" stroke="#AB7C8C" stroke-width=".5"/><path stroke="#5F434D" stroke-width="1.25" d="M.625.625h26.75v28.75H.625z"/></g></svg>